<mxfile host="app.diagrams.net" modified="2021-03-09T04:46:33.960Z" agent="5.0 (Macintosh; Intel Mac OS X 11_1_0) AppleWebKit/537.36 (KHTML, like Gecko) Chrome/88.0.4324.192 Safari/537.36" etag="PhkIRvbkzjb4nXaisuYJ" version="14.4.5" type="github">
  <diagram id="L1m9j7CbCXa1aUlBPn3F" name="第 1 页">
    <mxGraphModel dx="946" dy="614" grid="0" gridSize="10" guides="1" tooltips="1" connect="1" arrows="1" fold="1" page="0" pageScale="1" pageWidth="827" pageHeight="1169" math="0" shadow="0">
      <root>
        <mxCell id="0" />
        <mxCell id="1" parent="0" />
        <mxCell id="oBc7FIohURVzazIV89e2-16" value="" style="rounded=0;whiteSpace=wrap;html=1;fillColor=none;dashed=1;" vertex="1" parent="1">
          <mxGeometry x="310" y="340" width="120" height="120" as="geometry" />
        </mxCell>
        <mxCell id="oBc7FIohURVzazIV89e2-4" style="edgeStyle=orthogonalEdgeStyle;rounded=0;orthogonalLoop=1;jettySize=auto;html=1;exitX=0;exitY=0.5;exitDx=0;exitDy=0;entryX=1;entryY=0.75;entryDx=0;entryDy=0;" edge="1" parent="1" source="oBc7FIohURVzazIV89e2-1" target="oBc7FIohURVzazIV89e2-16">
          <mxGeometry relative="1" as="geometry">
            <Array as="points">
              <mxPoint x="560" y="290" />
              <mxPoint x="560" y="430" />
            </Array>
          </mxGeometry>
        </mxCell>
        <mxCell id="oBc7FIohURVzazIV89e2-6" value="jwt" style="edgeLabel;html=1;align=center;verticalAlign=middle;resizable=0;points=[];" vertex="1" connectable="0" parent="oBc7FIohURVzazIV89e2-4">
          <mxGeometry x="0.2588" y="3" relative="1" as="geometry">
            <mxPoint as="offset" />
          </mxGeometry>
        </mxCell>
        <mxCell id="oBc7FIohURVzazIV89e2-1" value="Auth Server" style="rounded=0;whiteSpace=wrap;html=1;fillColor=#fad9d5;strokeColor=#ae4132;" vertex="1" parent="1">
          <mxGeometry x="600" y="260" width="120" height="60" as="geometry" />
        </mxCell>
        <mxCell id="oBc7FIohURVzazIV89e2-8" style="edgeStyle=orthogonalEdgeStyle;rounded=0;orthogonalLoop=1;jettySize=auto;html=1;exitX=0.5;exitY=1;exitDx=0;exitDy=0;entryX=0.5;entryY=0;entryDx=0;entryDy=0;" edge="1" parent="1" source="oBc7FIohURVzazIV89e2-2" target="oBc7FIohURVzazIV89e2-7">
          <mxGeometry relative="1" as="geometry" />
        </mxCell>
        <mxCell id="oBc7FIohURVzazIV89e2-9" value="jwt - 3600s" style="edgeLabel;html=1;align=center;verticalAlign=middle;resizable=0;points=[];" vertex="1" connectable="0" parent="oBc7FIohURVzazIV89e2-8">
          <mxGeometry x="-0.2" y="-2" relative="1" as="geometry">
            <mxPoint as="offset" />
          </mxGeometry>
        </mxCell>
        <mxCell id="oBc7FIohURVzazIV89e2-12" style="edgeStyle=orthogonalEdgeStyle;rounded=0;orthogonalLoop=1;jettySize=auto;html=1;exitX=0.5;exitY=0;exitDx=0;exitDy=0;entryX=0;entryY=0.5;entryDx=0;entryDy=0;" edge="1" parent="1" source="oBc7FIohURVzazIV89e2-2" target="oBc7FIohURVzazIV89e2-10">
          <mxGeometry relative="1" as="geometry" />
        </mxCell>
        <mxCell id="oBc7FIohURVzazIV89e2-14" value="header(jwt)" style="edgeLabel;html=1;align=center;verticalAlign=middle;resizable=0;points=[];" vertex="1" connectable="0" parent="oBc7FIohURVzazIV89e2-12">
          <mxGeometry x="0.2571" relative="1" as="geometry">
            <mxPoint as="offset" />
          </mxGeometry>
        </mxCell>
        <mxCell id="oBc7FIohURVzazIV89e2-2" value="kong-gateway" style="rounded=0;whiteSpace=wrap;html=1;fillColor=#d0cee2;strokeColor=#56517e;" vertex="1" parent="1">
          <mxGeometry x="310" y="220" width="120" height="60" as="geometry" />
        </mxCell>
        <mxCell id="oBc7FIohURVzazIV89e2-5" value="clientId + secret" style="text;html=1;align=center;verticalAlign=middle;resizable=0;points=[];autosize=1;" vertex="1" parent="1">
          <mxGeometry x="450" y="340" width="100" height="20" as="geometry" />
        </mxCell>
        <mxCell id="oBc7FIohURVzazIV89e2-7" value="local cache" style="rounded=1;whiteSpace=wrap;html=1;fillColor=#b1ddf0;strokeColor=#10739e;" vertex="1" parent="1">
          <mxGeometry x="330" y="390" width="80" height="40" as="geometry" />
        </mxCell>
        <mxCell id="oBc7FIohURVzazIV89e2-10" value="biz-server" style="rounded=0;whiteSpace=wrap;html=1;fillColor=#bac8d3;strokeColor=#23445d;" vertex="1" parent="1">
          <mxGeometry x="600" y="140" width="120" height="60" as="geometry" />
        </mxCell>
        <mxCell id="oBc7FIohURVzazIV89e2-15" value="1.配置文件获取clientId + sercret&lt;br&gt;2.多次获取 jwt 上一个jwt会失效?" style="shape=note;whiteSpace=wrap;html=1;backgroundOutline=1;darkOpacity=0.05;align=left;" vertex="1" parent="1">
          <mxGeometry x="580" y="410" width="200" height="210" as="geometry" />
        </mxCell>
        <mxCell id="oBc7FIohURVzazIV89e2-21" style="edgeStyle=orthogonalEdgeStyle;rounded=0;orthogonalLoop=1;jettySize=auto;html=1;entryX=0;entryY=0.25;entryDx=0;entryDy=0;" edge="1" parent="1" source="oBc7FIohURVzazIV89e2-16" target="oBc7FIohURVzazIV89e2-1">
          <mxGeometry relative="1" as="geometry" />
        </mxCell>
        <mxCell id="oBc7FIohURVzazIV89e2-18" value="&lt;span class=&quot;dictBing-SentenceItem_HL&quot; style=&quot;color: rgb(249 , 105 , 14) ; font-family: &amp;#34;helvetica neue&amp;#34; , &amp;#34;helvetica&amp;#34; , &amp;#34;arial&amp;#34; , &amp;#34;hiragino sans gb&amp;#34; , &amp;#34;hiragino sans gb w3&amp;#34; , &amp;#34;microsoft yahei ui&amp;#34; , &amp;#34;microsoft yahei&amp;#34; , sans-serif ; font-size: 13px ; text-align: left&quot;&gt;global&lt;/span&gt;&lt;span class=&quot;client_sen_word&quot; style=&quot;color: rgb(51 , 51 , 51) ; font-family: &amp;#34;helvetica neue&amp;#34; , &amp;#34;helvetica&amp;#34; , &amp;#34;arial&amp;#34; , &amp;#34;hiragino sans gb&amp;#34; , &amp;#34;hiragino sans gb w3&amp;#34; , &amp;#34;microsoft yahei ui&amp;#34; , &amp;#34;microsoft yahei&amp;#34; , sans-serif ; font-size: 13px ; text-align: left&quot;&gt;&amp;nbsp;&lt;/span&gt;&lt;span class=&quot;dictBing-SentenceItem_HL&quot; style=&quot;color: rgb(249 , 105 , 14) ; font-family: &amp;#34;helvetica neue&amp;#34; , &amp;#34;helvetica&amp;#34; , &amp;#34;arial&amp;#34; , &amp;#34;hiragino sans gb&amp;#34; , &amp;#34;hiragino sans gb w3&amp;#34; , &amp;#34;microsoft yahei ui&amp;#34; , &amp;#34;microsoft yahei&amp;#34; , sans-serif ; font-size: 13px ; text-align: left&quot;&gt;plugin&lt;/span&gt;" style="text;html=1;strokeColor=none;fillColor=none;align=center;verticalAlign=middle;whiteSpace=wrap;rounded=0;dashed=1;" vertex="1" parent="1">
          <mxGeometry x="350" y="450" width="40" height="20" as="geometry" />
        </mxCell>
        <mxCell id="oBc7FIohURVzazIV89e2-22" value="国际系统" style="rounded=0;whiteSpace=wrap;html=1;dashed=1;fillColor=none;" vertex="1" parent="1">
          <mxGeometry x="580" y="30" width="165.53" height="370" as="geometry" />
        </mxCell>
      </root>
    </mxGraphModel>
  </diagram>
</mxfile>
